<?xml version="1.0" encoding="utf-8"?>
<!-- Generator: Adobe Illustrator 15.0.2, SVG Export Plug-In . SVG Version: 6.00 Build 0)  -->
<!DOCTYPE svg PUBLIC "-//W3C//DTD SVG 1.1//EN" "http://www.w3.org/Graphics/SVG/1.1/DTD/svg11.dtd">
<svg version="1.1" id="Layer_1" xmlns="http://www.w3.org/2000/svg" xmlns:xlink="http://www.w3.org/1999/xlink" x="0px" y="0px"
	 width="360px" height="360px" viewBox="0 0 360 360" enable-background="new 0 0 360 360" xml:space="preserve">
<path fill="#D5573A" d="M216.729,184.633c-6.945-8.68-9.51-11.022-7.639-13.42l5.455-8.947c0,0,14.073-25.195,3.601-45.27
	c-10.474-20.074-36.657-27.063-47.132-24.444c-10.473,2.618-30.008,13.527-36.657,26.619c-3.787,7.458-3.819,21.493-2.182,31.421
	c0.556,3.371,6.764,15.602,17.565,22.803c10.801,7.2,16.365,8.291,22.584,9.273c6.219,0.982,16.203,0.65,18.548,0.219
	c7.692-1.417,6.547-3.928,10.909,0.653c1.479,1.552,21.928,30.547,24.22,33.82c2.291,3.272,16.584,13.091,9.379,22.351
	c-6.524,8.387-0.726,2.236-8.253,10.093c-7.528,7.854-33.856,33.891-36.146,37.49c-2.292,3.601-7.856,11.456-8.838,14.401
	c-0.981,2.946-8.182,5.892-11.455,0c-3.272-5.892-3.272-9.819-7.528-16.038c-4.255-6.218-23.239-36.002-34.693-47.786
	c-11.456-11.783-37.858-49.592-43.422-65.958c-5.564-16.365-20.074-57.106,7.855-93.328c17.511-22.71,49.914-36.629,68.951-38.73
	c29.671-3.273,50.078,1.637,50.078,1.637s18.687,2.635,41.27,20.309c22.584,17.674,33.682,35.986,36.3,58.897
	c2.618,22.911,3.272,28.148-1.964,43.531c-5.236,15.384-22.931,41.37-29.477,47.917c-6.547,6.545-8.816,7.724-20.273-2.749"/>
</svg>
